# xmcd
#
# Track frame offsets:
#	150
#	17424
#	29412
#	42179
#	56442
#	72103
#	88542
#	101590
#
# Disc length: 1537 seconds
#
# Revision: 1
# Processed by: cddbd v1.5.2PL0 Copyright (c) Steve Scherf et al.
# Submitted via: audiograbber 1.83.01
#
DISCID=5905ff08
DTITLE=Marianne Weber - Haar Grootste Successen (Bonus Cd) CD2
DYEAR=2008
DGENRE=Ballad
TTITLE0=Vraag Je Niet Meer Af Waarom (Il Tomorrow Never Comes)
TTITLE1=Al Deze Rozen Mag Je Houden(I'm Leaving Il All To You)
TTITLE2=Sneeuwwitte Vredesduif(On The Wings Of A Dove)
TTITLE3=Ik Doe Wat Ik Wil(Achy Breaky Heart)
TTITLE4=Toch Hou Ik Zoveel Van Jou (Always On My Mind)
TTITLE5='k Wacht niet Tot Morgen (Rosen Garden)
TTITLE6=Geef Me Nog 'n Laatste Kus (He Il Have To Go)
TTITLE7=Ik Zal Nooit 'n Traan Om Jou Laten (I love You  because)
EXTD=Bonus CD2
EXTT0=
EXTT1=
EXTT2=
EXTT3=
EXTT4=
EXTT5=
EXTT6=
EXTT7=
PLAYORDER=
